<svg width="67" height="71" viewBox="0 0 67 71" fill="none" xmlns="http://www.w3.org/2000/svg"><g filter="url(#filter0_d_627_19624)"><path d="M30.787 21.3362C30.6929 21.1794 30.5234 21.0834 30.3404 21.0834H25.3052C24.9004 21.0834 24.6503 21.525 24.8586 21.8722L30.4836 31.2472C30.5777 31.4041 30.7473 31.5 30.9302 31.5H35.9654C36.3703 31.5 36.6203 31.0584 36.412 30.7112L30.787 21.3362Z" fill="#C52229"/><path fill-rule="evenodd" clip-rule="evenodd" d="M30.3405 20.5625H25.3053C24.4956 20.5625 23.9955 21.4458 24.4121 22.1401L30.0371 31.5151C30.2253 31.8289 30.5644 32.0208 30.9303 32.0208H35.9655C36.7752 32.0208 37.2753 31.1375 36.8587 30.4432L31.2337 21.0682C31.0455 20.7545 30.7064 20.5625 30.3405 20.5625ZM30.3405 21.0833C30.5235 21.0833 30.693 21.1793 30.7871 21.3362L36.4121 30.7112C36.6204 31.0583 36.3704 31.5 35.9655 31.5H30.9303C30.7473 31.5 30.5778 31.404 30.4837 31.2471L24.8587 21.8721C24.6504 21.525 24.9005 21.0833 25.3053 21.0833H30.3405Z" fill="#9B0F15"/><path d="M36.2128 21.3362C36.307 21.1794 36.4765 21.0834 36.6595 21.0834H41.6947C42.0995 21.0834 42.3496 21.525 42.1413 21.8722L36.5163 31.2472C36.4222 31.4041 36.2526 31.5 36.0697 31.5H31.0345C30.6296 31.5 30.3796 31.0584 30.5878 30.7112L36.2128 21.3362Z" fill="#F1333B"/><path fill-rule="evenodd" clip-rule="evenodd" d="M36.6594 20.5625H41.6946C42.5043 20.5625 43.0044 21.4458 42.5878 22.1401L36.9628 31.5151C36.7746 31.8289 36.4355 32.0208 36.0696 32.0208H31.0344C30.2247 32.0208 29.7246 31.1375 30.1411 30.4432L35.7661 21.0682C35.9544 20.7545 36.2935 20.5625 36.6594 20.5625ZM36.6594 21.0833C36.4764 21.0833 36.3069 21.1793 36.2128 21.3362L30.5878 30.7112C30.3795 31.0583 30.6295 31.5 31.0344 31.5H36.0696C36.2525 31.5 36.4221 31.404 36.5162 31.2471L42.1412 21.8721C42.3495 21.525 42.0994 21.0833 41.6946 21.0833H36.6594Z" fill="#9B0F15"/><path fill-rule="evenodd" clip-rule="evenodd" d="M36.7557 21.379C36.8801 21.4512 36.9224 21.6106 36.8502 21.735L34.5064 25.7714C34.4342 25.8958 34.2748 25.9381 34.1504 25.8659C34.0261 25.7937 33.9838 25.6343 34.056 25.5099L36.3998 21.4734C36.472 21.3491 36.6313 21.3068 36.7557 21.379Z" fill="#FE666D"/><path fill-rule="evenodd" clip-rule="evenodd" d="M25.2963 21.379C25.1719 21.4512 25.1296 21.6106 25.2018 21.735L27.5456 25.7714C27.6178 25.8958 27.7772 25.9381 27.9016 25.8659C28.0259 25.7937 28.0682 25.6343 27.996 25.5099L25.6522 21.4734C25.58 21.3491 25.4207 21.3068 25.2963 21.379Z" fill="#DF3840"/><path d="M30.2447 21.9379C30.2447 22.1222 30.0989 22.2716 29.9191 22.2716C29.7394 22.2716 29.5936 22.1222 29.5936 21.9379C29.5936 21.7536 29.7394 21.6042 29.9191 21.6042C30.0989 21.6042 30.2447 21.7536 30.2447 21.9379Z" fill="#AA161D"/><path d="M29.1015 22.0193C29.1015 22.2485 28.9202 22.4343 28.6965 22.4343C28.4729 22.4343 28.2916 22.2485 28.2916 22.0193C28.2916 21.7901 28.4729 21.6042 28.6965 21.6042C28.9202 21.6042 29.1015 21.7901 29.1015 22.0193Z" fill="#AA161D"/><path d="M30.1145 23.2074C30.1145 23.4366 29.9332 23.6224 29.7096 23.6224C29.486 23.6224 29.3047 23.4366 29.3047 23.2074C29.3047 22.9782 29.486 22.7924 29.7096 22.7924C29.9332 22.7924 30.1145 22.9782 30.1145 23.2074Z" fill="#AA161D"/><path d="M31.0403 22.6418C31.0403 22.7565 30.9496 22.8494 30.8378 22.8494C30.726 22.8494 30.6354 22.7565 30.6354 22.6418C30.6354 22.5272 30.726 22.4343 30.8378 22.4343C30.9496 22.4343 31.0403 22.5272 31.0403 22.6418Z" fill="#AA161D"/><path d="M28.8989 22.9999C28.8989 23.1145 28.8083 23.2074 28.6965 23.2074C28.5847 23.2074 28.494 23.1145 28.494 22.9999C28.494 22.8853 28.5847 22.7924 28.6965 22.7924C28.8083 22.7924 28.8989 22.8853 28.8989 22.9999Z" fill="#AA161D"/><path d="M27.7708 21.7303C27.7708 21.845 27.6801 21.9379 27.5683 21.9379C27.4565 21.9379 27.3658 21.845 27.3658 21.7303C27.3658 21.6157 27.4565 21.5228 27.5683 21.5228C27.6801 21.5228 27.7708 21.6157 27.7708 21.7303Z" fill="#AA161D"/><path d="M30.8378 24.0903C30.8378 24.2049 30.7471 24.2979 30.6353 24.2979C30.5235 24.2979 30.4329 24.2049 30.4329 24.0903C30.4329 23.9757 30.5235 23.8828 30.6353 23.8828C30.7471 23.8828 30.8378 23.9757 30.8378 24.0903Z" fill="#AA161D"/><path d="M29.7962 24.2979C29.7962 24.4125 29.7055 24.5054 29.5937 24.5054C29.4819 24.5054 29.3912 24.4125 29.3912 24.2979C29.3912 24.1832 29.4819 24.0903 29.5937 24.0903C29.7055 24.0903 29.7962 24.1832 29.7962 24.2979Z" fill="#AA161D"/><path d="M31.8151 23.5451C31.8151 23.7316 31.6676 23.8829 31.4856 23.8829C31.3036 23.8829 31.1561 23.7316 31.1561 23.5451C31.1561 23.3586 31.3036 23.2074 31.4856 23.2074C31.6676 23.2074 31.8151 23.3586 31.8151 23.5451Z" fill="#AA161D"/><path d="M32.2446 24.5054C32.2446 24.62 32.154 24.7129 32.0422 24.7129C31.9304 24.7129 31.8397 24.62 31.8397 24.5054C31.8397 24.3908 31.9304 24.2979 32.0422 24.2979C32.154 24.2979 32.2446 24.3908 32.2446 24.5054Z" fill="#AA161D"/><path d="M40.5312 34.8855C40.5312 38.7688 37.3833 41.9167 33.5 41.9167C29.6167 41.9167 26.4688 38.7688 26.4688 34.8855C26.4688 31.0022 29.6167 27.8542 33.5 27.8542C37.3833 27.8542 40.5312 31.0022 40.5312 34.8855Z" fill="#FFBB0D"/><path fill-rule="evenodd" clip-rule="evenodd" d="M41.052 34.8855C41.052 39.0564 37.6709 42.4375 33.5 42.4375C29.3291 42.4375 25.9479 39.0564 25.9479 34.8855C25.9479 30.7146 29.3291 27.3334 33.5 27.3334C37.6709 27.3334 41.052 30.7146 41.052 34.8855ZM33.5 41.9167C37.3832 41.9167 40.5312 38.7687 40.5312 34.8855C40.5312 31.0022 37.3832 27.8542 33.5 27.8542C29.6167 27.8542 26.4687 31.0022 26.4687 34.8855C26.4687 38.7687 29.6167 41.9167 33.5 41.9167Z" fill="#E89B05"/><path fill-rule="evenodd" clip-rule="evenodd" d="M26.9895 35.1459C26.8457 35.1459 26.7291 35.0293 26.7291 34.8855C26.7291 31.146 29.7605 28.1146 33.5 28.1146C33.6438 28.1146 33.7604 28.2312 33.7604 28.375C33.7604 28.5189 33.6438 28.6355 33.5 28.6355C30.0482 28.6355 27.25 31.4337 27.25 34.8855C27.25 35.0293 27.1334 35.1459 26.9895 35.1459Z" fill="#E8AA0A"/><path fill-rule="evenodd" clip-rule="evenodd" d="M40.0103 34.625C40.1542 34.625 40.2708 34.7416 40.2708 34.8854C40.2708 38.6248 37.2393 41.6562 33.4999 41.6562C33.3561 41.6562 33.2395 41.5397 33.2395 41.3958C33.2395 41.252 33.3561 41.1354 33.4999 41.1354C36.9517 41.1354 39.7499 38.3372 39.7499 34.8854C39.7499 34.7416 39.8665 34.625 40.0103 34.625Z" fill="#E8AA0A"/><path d="M38.7083 34.8855C38.7083 37.7619 36.3764 40.0938 33.5 40.0938C30.6235 40.0938 28.2916 37.7619 28.2916 34.8855C28.2916 32.009 30.6235 29.6771 33.5 29.6771C36.3764 29.6771 38.7083 32.009 38.7083 34.8855Z" fill="#FFDD28"/><path fill-rule="evenodd" clip-rule="evenodd" d="M39.2291 34.8854C39.2291 38.0495 36.664 40.6146 33.4999 40.6146C30.3358 40.6146 27.7708 38.0495 27.7708 34.8854C27.7708 31.7213 30.3358 29.1562 33.4999 29.1562C36.664 29.1562 39.2291 31.7213 39.2291 34.8854ZM33.4999 40.0937C36.3764 40.0937 38.7083 37.7619 38.7083 34.8854C38.7083 32.0089 36.3764 29.6771 33.4999 29.6771C30.6234 29.6771 28.2916 32.0089 28.2916 34.8854C28.2916 37.7619 30.6234 40.0937 33.4999 40.0937Z" fill="#E89B05"/><path fill-rule="evenodd" clip-rule="evenodd" d="M33.5 39.3125C35.945 39.3125 37.927 37.3305 37.927 34.8855C37.927 34.7416 38.0436 34.625 38.1875 34.625C38.3313 34.625 38.4479 34.7416 38.4479 34.8855C38.4479 37.6181 36.2326 39.8334 33.5 39.8334C33.3561 39.8334 33.2395 39.7168 33.2395 39.573C33.2395 39.4291 33.3561 39.3125 33.5 39.3125Z" fill="#ECC704"/><path fill-rule="evenodd" clip-rule="evenodd" d="M33.4999 30.4583C31.0549 30.4583 29.0728 32.4404 29.0728 34.8854C29.0728 35.0292 28.9562 35.1458 28.8124 35.1458C28.6686 35.1458 28.552 35.0292 28.552 34.8854C28.552 32.1528 30.7673 29.9375 33.4999 29.9375C33.6437 29.9375 33.7603 30.0541 33.7603 30.1979C33.7603 30.3417 33.6437 30.4583 33.4999 30.4583Z" fill="#FFEF9C"/><path d="M30.6355 34.2085L32.4259 33.8439L32.963 32.9325L33.5001 32.021L34.5743 33.8439L36.3647 34.2085L34.9324 35.6668L35.2904 37.4897L33.5001 36.5783L31.7097 37.4897L32.0678 35.6668L30.6355 34.2085Z" fill="#FFEF9C"/><path fill-rule="evenodd" clip-rule="evenodd" d="M32.4258 33.8439L33.5001 32.021L34.5743 33.8439L36.3646 34.2085L34.9323 35.6668L35.2904 37.4897L33.5001 36.5782L31.7097 37.4897L32.0678 35.6668L30.6355 34.2085L32.4258 33.8439ZM31.5038 35.8358L30.2639 34.5734C30.1301 34.4372 30.0816 34.2387 30.1374 34.0562C30.1932 33.8736 30.3445 33.7362 30.5315 33.6981L32.0948 33.3798L33.0513 31.7565C33.145 31.5976 33.3156 31.5001 33.5001 31.5001C33.6845 31.5001 33.8551 31.5976 33.9488 31.7565L34.9053 33.3798L36.4686 33.6981C36.6556 33.7362 36.8069 33.8736 36.8627 34.0562C36.9185 34.2387 36.87 34.4372 36.7362 34.5734L35.4963 35.8358L35.8015 37.3893C35.8399 37.5849 35.7634 37.7852 35.6043 37.9053C35.4453 38.0254 35.2317 38.0443 35.0541 37.9539L33.5001 37.1627L31.946 37.9539C31.7684 38.0443 31.5548 38.0254 31.3958 37.9053C31.2367 37.7852 31.1602 37.5849 31.1986 37.3893L31.5038 35.8358Z" fill="#E89B05"/></g><defs><filter id="filter0_d_627_19624" x="-3" y="-1" width="72" height="72" filterUnits="userSpaceOnUse" color-interpolation-filters="sRGB"><feFlood flood-opacity="0" result="BackgroundImageFix"/><feColorMatrix in="SourceAlpha" type="matrix" values="0 0 0 0 0 0 0 0 0 0 0 0 0 0 0 0 0 0 127 0" result="hardAlpha"/><feOffset dy="4"/><feGaussianBlur stdDeviation="12"/><feComposite in2="hardAlpha" operator="out"/><feColorMatrix type="matrix" values="0 0 0 0 0.188235 0 0 0 0 0.501961 0 0 0 0 0.890196 0 0 0 0.2 0"/><feBlend mode="normal" in2="BackgroundImageFix" result="effect1_dropShadow_627_19624"/><feBlend mode="normal" in="SourceGraphic" in2="effect1_dropShadow_627_19624" result="shape"/></filter></defs></svg>